/* XPM */
static char *GHAASlogo[] = {
/* columns rows colors chars-per-pixel */
"132 43 177 2 ",
"   c #000000",
".  c #010101",
"X  c #020202",
"o  c #030303",
"O  c #040404",
"+  c #050505",
"@  c #060606",
"#  c #070707",
"$  c #080808",
"%  c #090909",
"&  c #0A0A0A",
"*  c #0B0B0B",
"=  c #0C0C0C",
"-  c #0D0D0D",
";  c #0F0F0F",
":  c #101010",
">  c #111111",
",  c #121212",
"<  c #131313",
"1  c #181818",
"2  c #191919",
"3  c #1A1A1A",
"4  c #1B1B1B",
"5  c #1C1C1C",
"6  c #1D1D1D",
"7  c #1E1E1E",
"8  c #202020",
"9  c #212121",
"0  c #222222",
"q  c #232323",
"w  c #252525",
"e  c #262626",
"r  c #272727",
"t  c #282828",
"y  c #2E2E2E",
"u  c #303030",
"i  c #313131",
"p  c #333333",
"a  c #343434",
"s  c #353535",
"d  c #373737",
"f  c #383838",
"g  c #3A3A3A",
"h  c #3B3B3B",
"j  c #424242",
"k  c #444444",
"l  c #454545",
"z  c #464646",
"x  c #474747",
"c  c #484848",
"v  c #4A4A4A",
"b  c #4C4C4C",
"n  c #515151",
"m  c #535353",
"M  c #555555",
"N  c #565656",
"B  c #595959",
"V  c #5A5A5A",
"C  c #5D5D5D",
"Z  c #5E5E5E",
"A  c #5F5F5F",
"S  c #606060",
"D  c #626262",
"F  c #636363",
"G  c #646464",
"H  c #666666",
"J  c #676767",
"K  c #686868",
"L  c #696969",
"P  c #6A6A6A",
"I  c #6B6B6B",
"U  c #6C6C6C",
"Y  c #6D6D6D",
"T  c #6E6E6E",
"R  c #6F6F6F",
"E  c #707070",
"W  c #717171",
"Q  c #727272",
"!  c #737373",
"~  c #747474",
"^  c #757575",
"/  c #767676",
"(  c #777777",
")  c #787878",
"_  c #797979",
"`  c #7A7A7A",
"'  c #7B7B7B",
"]  c #7C7C7C",
"[  c #7D7D7D",
"{  c #7E7E7E",
"}  c #7F7F7F",
"|  c #808080",
" . c #818181",
".. c #858585",
"X. c #868686",
"o. c #888888",
"O. c #898989",
"+. c #8B8B8B",
"@. c #8C8C8C",
"#. c #8D8D8D",
"$. c #919191",
"%. c #929292",
"&. c #979797",
"*. c #989898",
"=. c #999999",
"-. c #9A9A9A",
";. c #9B9B9B",
":. c #9E9E9E",
">. c #A1A1A1",
",. c #A5A5A5",
"<. c #A7A7A7",
"1. c #A8A8A8",
"2. c #AAAAAA",
"3. c #ACACAC",
"4. c #ADADAD",
"5. c #AEAEAE",
"6. c #AFAFAF",
"7. c #B0B0B0",
"8. c #B1B1B1",
"9. c #B2B2B2",
"0. c #B3B3B3",
"q. c #B4B4B4",
"w. c #B6B6B6",
"e. c #B7B7B7",
"r. c #B8B8B8",
"t. c #B9B9B9",
"y. c #BABABA",
"u. c #BCBCBC",
"i. c #BDBDBD",
"p. c #BFBFBF",
"a. c #C0C0C0",
"s. c #C2C2C2",
"d. c #C3C3C3",
"f. c #C4C4C4",
"g. c #C5C5C5",
"h. c #C6C6C6",
"j. c #C7C7C7",
"k. c #C9C9C9",
"l. c #CACACA",
"z. c #CBCBCB",
"x. c #CCCCCC",
"c. c #CDCDCD",
"v. c #CECECE",
"b. c #CFCFCF",
"n. c #D0D0D0",
"m. c #D1D1D1",
"M. c #D2D2D2",
"N. c #D3D3D3",
"B. c #D4D4D4",
"V. c #D5D5D5",
"C. c #D6D6D6",
"Z. c #D7D7D7",
"A. c #D8D8D8",
"S. c #D9D9D9",
"D. c #DADADA",
"F. c #DBDBDB",
"G. c #DCDCDC",
"H. c #DDDDDD",
"J. c #DEDEDE",
"K. c #DFDFDF",
"L. c #E0E0E0",
"P. c #E1E1E1",
"I. c #E6E6E6",
"U. c #EBEBEB",
"Y. c #ECECEC",
"T. c #EEEEEE",
"R. c #F0F0F0",
"E. c #F1F1F1",
"W. c #F2F2F2",
"Q. c #F5F5F5",
"!. c #F6F6F6",
"~. c #F8F8F8",
"^. c #F9F9F9",
"/. c #FAFAFA",
"(. c #FBFBFB",
"). c #FFFFFF",
"_. c None",
/* pixels */
"_._._._._._._._._._._._._._._._._._.                                _.                _._._.,.h.k.Y       _._._._._._._._._._.          _._._._._._._._._._._._._._._._.            _._._._._._._._._._._._._._._._._.                                  _._._._._._._._.",
"_._._._._._._._._._._._._._.                                        _.                _._._.r.R.(.o.      _._._._._._._.                      _._._._._._._._._._._.                    _._._._._._._._._._._._.                                        _._._._._._._._.",
"_._._._._._._._._._._._.                                            _.                _._._.w.R.(.@.      _._._._._._.                          _._._._._._._._.                            _._._._._._._._.                                            _._._._._._._._.",
"_._._._._._._._._._.                                                _.                _._._.r.R.(.@.      _._._._._.                              _._._._._._.                                _._._._._._.                                              _._._._._._._._.",
"_._._._._._._._._.                                                  _.                _._._.r.T.(.@.      _._._._.                                  _._._._._.                                _._._._._.                                                _._._._._._._._.",
"_._._._._._._._.                                                    _.                _._._.r.n.R.@.      _._._._.                                  _._._._.                                    _._._._.                                                _._._._._._._._.",
"_._._._._._._.                                                      _.                _._._.w.R.(.@.      _._._.                _._._.              _._._._.                _._.                _._._.                                                  _._._._._._._._.",
"_._._._._._.                                                        _.                    : 4.R.(.@.      _._._.                _._._.              _._._._.                _._._.              _._._.                                                  _._._._._._._._.",
"_._._._._.                          O O : : - - - - O               _.                    < 8.R.(.@.      _._._.                _._._.              _._._._.                _._.                _._.                                                  _._._._._._._._._.",
"_._._._.                      O 1 g N Z K H _ | ,.2.@._._._._._._._._.                    < 8.R.(.@.      _._._.                _.                  _._._._.                                    _._.                        _._._._._._._._._._._._._._._._._._._._._._.",
"_._._.                      < c Y _ _ E F Y ~ *.L.L.H.r._ _._._._._._.                    $ N K H N K Y H _._._.                _.                  _._._._.                                    _._.                        _._._._._._._._._._._._._._._._._._._._._._.",
"_._._.                    q F _ _ ~ ~ F F 8.r.c.H.k.h.H.n.4._._._._._.                            x (.(.n._._._.                _.                  _._._._.                                    _._.                        _._._._._._._._._._._._._._._._._._._._._._.",
"_._.                    d Y _ ~ _ _ E X.~ [ Z Y r.Y Y r.L.H.u._._._._.                            c (.(.k._._._.                _.                  _._._._.                                    _._._.                      _._._._._._._._._._._._._._._._._._._._._._.",
"_._.                  y ~ _ _ ~ ~ _ E ~ _ X.F Z Y Y [ h.H.L.H.w._._._.                            c (.(.c._._._.                _.                  _._._._.                                    _._._.                      _._._._._._._._._._._._._._._._._._._._._._.",
"_.                  q Y _ ~ _ _ _ E o.s.n.H.w.~ E _ ~ k.H.u.n.H.2._._.                _._._.      c (.(.k._._._.                _._._.              _._._._.                _._._.              _._._.                        _._._._._._._._._._._._._._._._._._._._._.",
"_.                $ V _ ~ _ ~ _ ~ %.c.L.H.H.H.c.c.B.h.*.s.o.[ >.w._._.                _._._.      c T.n.h._._._.                _._._.              _._._._.                _._._.              _._._._.                          _._._._._._._._._._._._._._._._._._._.",
"_.                t ~ _ _ ~ ~ _ _ c.L.H.H.H.H.H.H.H.L.2.X.n.8.Y | *._.                _._._.      x (.Q.c._._._.                _._._.              _._._._.                _._._.              _._._._._.                          _._._._._._._._._._._._._._._._._._.",
"                  c _ ~ ~ _ _ ~ _ n.H.H.H.H.H.H.H.H.L.s.E w.*.~ ~ %._.                _._._.      x (.(.c._._._.                _._._.              _._._._.                _._._.              _._._._._.                                _._._._._._._._._._._._._._._.",
"                < H _ _ _ _ _ ~ | B.H.H.H.H.H.H.H.H.H.H.8._ ~ ~ ~ [ _.                _._._.      x (.(.n._._._.                _._._.              _._._._.                _._._.              _._._._._._.                                  _._._._._._._._._._._._._.",
"                u @.E ~ _ ~ ~ _ ~ ,.B.k.h.k.B.H.H.H.S.B.B.k.| E E Y x _._._._._._._._._._._.      x (.(.c._._._.                _._._.              _._._._.                _._._.              _._._._._._._.                                    _._._._._._._._._._._.",
"                b n.X.~ _ _ ~ _ _ ~ [ ~ ~ E o.S.H.L.@.u d u 1 6 6 6 $                 _._._.6 q 6 x r.u.2._._._.                _._._.        _._._._._._._.                _._._.              _._._._._._._._._.                                      _._._._._._._._.",
"                V L.2.Y ~ _ _ ~ _ ~ ~ ~ _ _ [ n.H.L.~                                 _._._.4.S.I.[ O $ $ _._._.                _._._._._._._._._.      _._._._._._._.      _._._.              _._._._._._._._._._.                                      _._._._._._._.",
"                x S.S.w.| ~ _ _ _ ~ _ _ ~ _ ~ h.L.L.E                                 _._._.r.R.(.@.      _._._.              _._._._.                              _._._._._._._.              _._._._._._._._._._._._.                                    _._._._._._.",
"                u B.H.L.>.E ~ ~ ~ _ _ ~ _ ~ E >.L.L.~                                 _._._.r.R.(.@.      _._._.          _._._.                                            _._._._._.          _._._._._._._._._._._._._._.                                    _._._._.",
"                1 u.L.L.:.E ~ _ ~ _ _ ~ _ ~ E :.H.L.~                               _._._._.w.R.(.@.      _._._.      _._._.                                                      _._._._.      _._._._._._._._._._._._._._._.                                    _._._.",
"                  [ L.S.o.~ _ _ _ _ ~ _ ~ _ E :.L.L.E                               _._._._.r.H.(.@.      _._._.    _._.                                                                _._._._._._._._._._._._._._._._._._._._.                                    _._.",
"_.                h B.k.~ ~ _ ~ ~ _ _ ~ _ _ E *.H.L.~                               _._._._.w.H.Q.@.      _._._._._._.                                  _._._._.                            _._._._._._._._._._._._._._._._._._.                                    _._.",
"_.                $ *.h.~ _ ~ _ ~ _ _ ~ _ ~ ~ o.H.L.| q r r r r :                   _._._._.r.R.(.@.      _._._._.                                    _._._._._._._.                              _._._._._._._._._._._._._._._._.                                    _.",
"_.                  h r._ ~ _ ~ _ ~ _ _ ~ _ ~ ~ w.4._ ~ ~ ~ _ K 1                   _._._._.r.R.(.@.      _._._.                                      _._._._._._._._._.                              _._._._._._._._._._._._._._.                                    _.",
"_._.                O V ~ _ ~ _ ~ _ _ ~ _ ~ _ ~ E E _ _ ~ _ E d                   _._._._._.r.R.(.o.      _._.                                        _._._._._._._._._._._.                              _._._._._._._._._._._.                                        ",
"_._.                  O h ~ _ ~ _ ~ ~ _ _ _ _ ~ _ _ _ ~ _ E d                     _._._._._.4.B.I.[ O - - O                                             _._._._._._._._._._._.                                  _._._._._._.                                            ",
"_._._.                  O g E _ _ _ ~ _ ~ _ ~ _ _ ~ _ _ K y                     _._._._._._.1 6 1 x s.s.4.d                                             _._._._._._._._._._._._.                                                                                        ",
"_._._.                      r m E _ _ _ ~ ~ ~ ~ _ _ E m 1                       _._._._._._.      c (.(.c.g                                               _._._._._._._._._._._._.                                                                                      ",
"_._._._.                      O q c H K E _ ~ | F j q O                       _._._._._._._.      c (.(.c.g                                                 _._._._._._._._._._._._._.                                                                                  ",
"_._._._._.                          $ : t d y 6 -                           _._._._._._._._.      c (.(.c.g                                                 _._._._._._._._._._._._._._.                                                                                ",
"_._._._._._.                                                              _._._._._._._._._.      c R.U.c.g                                                   _._._._._._._._._._._._._._.                                                                            _.",
"_._._._._._.                                                              _._._._._._._._._.      c R.S.k.g                                                     _._._._._._._._._._._._._._._.                                                                        _.",
"_._._._._._._.                                                        _._._._._._._._._._._.      x (.(.c.g                                                       _._._._._._._._._._._._._._._.                                                                    _._.",
"_._._._._._._._._.                                                  _._._._._._._._._._._._.      x (.(.n.g                                                         _._._._._._._._._._._._._._._._.                                                              _._._.",
"_._._._._._._._._._.                                              _._._._._._._._._._._._._.      x (.(.c.g                                                             _._._._._._._._._._._._._._._.                                                          _._._._.",
"_._._._._._._._._._._._.                                      _._._._._._._._._._._._._._._.      x T.R.c.g                                                               _._._._._._._._._._._._._._._._._.                                                  _._._._._.",
"_._._._._._._._._._._._._._.                              _._._._._._._._._._._._._._._._.        : d d g :                                                                 _._._._._._._._._._._._._._._._._._.                                        _._._._._._._._.",
"_._._._._._._._._._._._._._._._._._.              _._._._._._._._._._._._._._._._._._._._.                                                                                    _._._._._._._._._._._._._._._._._._._._._.                      _._._._._._._._._._._._._."
};
