/* XPM */
static char *GHAASlogo[] = {
/* columns rows colors chars-per-pixel */
"130 43 186 2",
"   c #000000",
".  c #010101",
"X  c #020202",
"o  c #030303",
"O  c #040404",
"+  c #050505",
"@  c #060606",
"#  c #070707",
"$  c #080808",
"%  c #090909",
"&  c #0A0A0A",
"*  c #0B0B0B",
"=  c #0C0C0C",
"-  c #0D0D0D",
";  c #0E0E0E",
":  c #0F0F0F",
">  c #111111",
",  c #121212",
"<  c #131313",
"1  c #141414",
"2  c #151515",
"3  c #171717",
"4  c #1A1A1A",
"5  c #1B1B1B",
"6  c #1C1C1C",
"7  c #1D1D1D",
"8  c #1E1E1E",
"9  c #1F1F1F",
"0  c #202020",
"q  c #212121",
"w  c #232323",
"e  c #252525",
"r  c #262626",
"t  c #282828",
"y  c #292929",
"u  c #2A2A2A",
"i  c #2B2B2B",
"p  c #2E2E2E",
"a  c #2F2F2F",
"s  c #303030",
"d  c #313131",
"f  c #333333",
"g  c #353535",
"h  c #373737",
"j  c #383838",
"k  c #393939",
"l  c #3A3A3A",
"z  c #3F3F3F",
"x  c #414141",
"c  c #434343",
"v  c #444444",
"b  c #454545",
"n  c #464646",
"m  c #474747",
"M  c #4A4A4A",
"N  c #4F4F4F",
"B  c #505050",
"V  c #525252",
"C  c #535353",
"Z  c #545454",
"A  c #565656",
"S  c #575757",
"D  c #5A5A5A",
"F  c #5B5B5B",
"G  c #5C5C5C",
"H  c #5D5D5D",
"J  c #5E5E5E",
"K  c #606060",
"L  c #616161",
"P  c #656565",
"I  c #666666",
"U  c #676767",
"Y  c #686868",
"T  c #696969",
"R  c #6A6A6A",
"E  c #6B6B6B",
"W  c #6C6C6C",
"Q  c #6D6D6D",
"!  c #6F6F6F",
"~  c #707070",
"^  c #717171",
"/  c #727272",
"(  c #737373",
")  c #747474",
"_  c #757575",
"`  c #767676",
"'  c #777777",
"]  c #787878",
"[  c #797979",
"{  c #7A7A7A",
"}  c #7B7B7B",
"|  c #7E7E7E",
" . c #7F7F7F",
".. c #808080",
"X. c #818181",
"o. c #828282",
"O. c #838383",
"+. c #868686",
"@. c #888888",
"#. c #898989",
"$. c #8B8B8B",
"%. c #8C8C8C",
"&. c #8E8E8E",
"*. c #8F8F8F",
"=. c #919191",
"-. c #929292",
";. c #939393",
":. c #949494",
">. c #959595",
",. c #969696",
"<. c #979797",
"1. c #989898",
"2. c #999999",
"3. c #9A9A9A",
"4. c #9B9B9B",
"5. c #9D9D9D",
"6. c #9E9E9E",
"7. c #9F9F9F",
"8. c #A0A0A0",
"9. c #A1A1A1",
"0. c #A2A2A2",
"q. c #A3A3A3",
"w. c #A5A5A5",
"e. c #A8A8A8",
"r. c #AAAAAA",
"t. c #ABABAB",
"y. c #ACACAC",
"u. c #ADADAD",
"i. c #AEAEAE",
"p. c #AFAFAF",
"a. c #B0B0B0",
"s. c #B1B1B1",
"d. c #B2B2B2",
"f. c #B3B3B3",
"g. c #B5B5B5",
"h. c #B6B6B6",
"j. c #B7B7B7",
"k. c #B8B8B8",
"l. c #B9B9B9",
"z. c #BABABA",
"x. c #BCBCBC",
"c. c #BEBEBE",
"v. c #BFBFBF",
"b. c #C0C0C0",
"n. c #C1C1C1",
"m. c #C2C2C2",
"M. c #C4C4C4",
"N. c #C5C5C5",
"B. c #C6C6C6",
"V. c #C7C7C7",
"C. c #C9C9C9",
"Z. c #CACACA",
"A. c #CBCBCB",
"S. c #CCCCCC",
"D. c #CECECE",
"F. c #CFCFCF",
"G. c #D0D0D0",
"H. c #D1D1D1",
"J. c #D2D2D2",
"K. c #D3D3D3",
"L. c #D4D4D4",
"P. c #D5D5D5",
"I. c #D6D6D6",
"U. c #D7D7D7",
"Y. c #D8D8D8",
"T. c #D9D9D9",
"R. c #DADADA",
"E. c #DBDBDB",
"W. c #DCDCDC",
"Q. c #DDDDDD",
"!. c #DEDEDE",
"~. c #DFDFDF",
"^. c #E0E0E0",
"/. c #E1E1E1",
"(. c #E2E2E2",
"). c #E3E3E3",
"_. c #E4E4E4",
"`. c #E6E6E6",
"'. c #E9E9E9",
"]. c #EEEEEE",
"[. c #EFEFEF",
"{. c #F1F1F1",
"}. c #F4F4F4",
"|. c #FBFBFB",
" X c #FFFFFF",
".X c None",
/* pixels */
".X.X.X.X.X.X.X.X.X.X.X.X.X.X.X.X.X.X                      @       .X.X              .X.X.X<.m.N.<.@       .X.X.X.X.X.X.X.X.X          .X.X.X.X.X.X.X.X.X.X.X.X.X.X.X.X            .X.X.X.X.X.X.X.X.X.X.X.X.X.X.X.X                                  .X.X.X.X.X.X.X.X",
".X.X.X.X.X.X.X.X.X.X.X.X.X.X                                      .X.X              .X.X.X8.). Xm.&       .X.X.X.X.X.X                      .X.X.X.X.X.X.X.X.X.X            @         .X.X.X.X.X.X.X.X.X.X.X.X  @                                   .X.X.X.X.X.X.X.X",
".X.X.X.X.X.X.X.X.X.X.X.X                                          .X.X              .X.X.X8.). Xx.&       .X.X.X.X.X                          .X.X.X.X.X.X.X.X                          .X.X.X.X.X.X.X.X.X                                    @     .X.X.X.X.X.X.X.X",
".X.X.X.X.X.X.X.X.X.X                                              .X.X              .X.X.X7.). Xm.&       .X.X.X.X                          @   .X.X.X.X.X.X                              .X.X.X.X.X.X.X                                            .X.X.X.X.X.X.X.X",
".X.X.X.X.X.X.X.X.X                                                .X.X  @           .X.X.Xw.). Xx.&       .X.X.X@                               .X.X.X.X.X.X                                .X.X.X.X.X                                              .X.X.X.X.X.X.X.X",
".X.X.X.X.X.X.X.X                                                  .X.X              .X.X.Xw.F.Q.m.&       .X.X.X                                  .X.X.X.X                                  .X.X.X.X  @                                             .X.X.X.X.X.X.X.X",
".X.X.X.X.X.X                                                      .X.X              .X.X.X<.). Xx.&       .X.X.X              .X.X.X              .X.X.X.X                .X.X                .X.X.X                                                .X.X.X.X.X.X.X.X",
".X.X.X.X.X.X                                                      .X.X                    | _. Xm.&       .X.X                .X.X.X              .X.X.X.X              .X.X.X                .X.X                                                  .X.X.X.X.X.X.X.X",
".X.X.X.X.X                            & > : : & : &               .X.X                    | ). Xx.&       .X.X                .X.X.X              .X.X.X.X        @     .X.X.X                .X.X                                                  .X.X.X.X.X.X.X.X",
".X.X.X.X                      @ 0 x F J E W [ #.u.8.[ .X.X.X.X.X.X.X.X                    O.'. Xm.@       .X.X                .X                  .X.X.X.X                                    .X.X                        .X.X.X.X.X.X.X.X.X.X.X.X.X.X.X.X.X.X.X.X.X",
".X.X.X                      7 Z ( [ [ E L ' ' x.).).J.7..X.X.X.X.X.X.X                    z E I F J E I M .X.X                .X                  .X.X.X.X                                    .X.X                @     .X.X.X.X.X.X.X.X.X.X.X.X.X.X.X.X.X.X.X.X.X.X",
".X.X.X                    d E [ ' ' ' V | k.k.R.U.m.F.Q.m.7..X.X.X.X.X                          4 ). XQ.<..X.X                .X                  .X.X.X.X                                @   .X.X                      .X.X.X.X.X.X.X.X.X.X.X.X.X.X.X.X.X.X.X.X.X.X",
".X.X                  @ v ( ' ' ' ' [ | ' ' V 2.7.I O.U.Q.J.w..X.X.X.X                          7 Q. XU.%..X.X                .X                  .X.X.X.X                                    .X.X                      .X.X.X.X.X.X.X.X.X.X.X.X.X.X.X.X.X.X.X.X.X.X",
".X.X                  z ' ' ' ' ' ' W ' | O.Z I I ( <.R.Q.).J.<..X.X.X                          7 ). XU.=..X.X                .X            @     .X.X.X.X                                    .X.X                        .X.X.X.X.X.X.X.X.X.X.X.X.X.X.X.X.X.X.X.X.X",
".X                  d ( ' ' ' ' ' ( 2.N.R.U.2.E [ ' =.Q.C.m.Q.C..X.X.X              .X.X.X      7 ). XR.=..X.X                .X.X.X              .X.X.X.X              .X.X.X                .X.X.X                        .X.X.X.X.X.X.X.X.X.X.X.X.X.X.X.X.X.X.X.X",
".X                > I [ ' ' ' ' ' 8.R.).Q.Q.R.N.J.F.u.w.k.( =.a.8..X.X              .X.X.X      7 Q.U.C.=..X.X                .X.X.X              .X.X.X.X              .X.X.X                .X.X.X                          .X.X.X.X.X.X.X.X.X.X.X.X.X.X.X.X.X.X.X",
".X                g ' ' ' ' ' ' +.R.Q.Q.Q.Q.Q.Q.Q.Q.R.| g.F.#.W <..X.X              .X.X.X      7 Q.|.U.=..X.X                .X.X.X              .X.X.X.X              .X.X.X                .X.X.X.X                    @       .X.X.X.X.X.X.X.X.X.X.X.X.X.X.X.X.X",
"                @ Z [ ' ' ' ' ( %.Q.Q.Q.Q.Q.Q.Q.Q.Q.R.<.O.x.[ ' O.=..X              .X.X.X      7 Q. XR.=..X.X        @       .X.X.X              .X.X.X.X              .X.X.X                .X.X.X.X.X                              .X.X.X.X.X.X.X.X.X.X.X.X.X.X.X",
"                4 W [ ' ' ' ' ( <.Q.Q.Q.).Q.Q.Q.Q.Q.Q.U.=.[ ( ' ' [ .X              .X.X.X      7 ). XQ.2..X.X                .X.X.X              .X.X.X.X@             .X.X.X                .X.X.X.X.X.X                                .X.X.X.X.X.X.X.X.X.X.X.X.X",
"                v #.W ' ' ' ' ' [ k.J.C.N.C.R.Q.Q.Q.U.U.J.e.E ( ( L .X.X.X.X.X.X.X.X.X.X.X      7 _. XR.=..X.X                .X.X.X              .X.X.X.X              .X.X.X                .X.X.X.X.X.X.X                                    .X.X.X.X.X.X.X.X.X.X",
"                I C.[ ' ' ' ' ' ' ' ' ( ( ( e.Q.Q.J.V d g r 4 4 7 1                 .X.X.X7 7 7 p w.x.a.[ .X.X                .X.X.X        .X.X.X.X.X.X.X              .X.X.X          @     .X.X.X.X.X.X.X.X                        @             .X.X.X.X.X.X.X.X",
"                ( ).<.( ' ' ' ' ' ' ' ' ' ( <.Q.Q.F.u                               .X.X.X2.J._.u.: & & & .X.X                .X.X.X.X.X.X.X.X.X      .X.X.X.X.X.X.X    .X.X.X                .X.X.X.X.X.X.X.X.X.X                                    .X.X.X.X.X.X.X",
"                L Q.U.u.[ [ ' ' ' ' ' ' ' ( #.U.Q.J.u                               .X.X.X8._. Xm.&       .X.X              .X.X.X.X        @                     .X.X.X.X.X.X                .X.X.X.X.X.X.X.X.X.X.X                                      .X.X.X.X.X",
"                v R.Q.Q.%.( ' ' ' ' ' ' ' ' ( m.Q.F.u                               .X.X.X8._. Xx.&       .X.X          .X.X.X                                            .X.X.X.X            .X.X.X.X.X.X.X.X.X.X.X.X.X                                    .X.X.X.X",
"                u C.Q.Q.#.' ' ' ' ' ' ' ' ' ( x.).F.u                               .X.X.X8.). Xm.&       .X.X      .X.X.X                                                    .X.X.X.X.X      .X.X.X.X.X.X.X.X.X.X.X.X.X.X                                    .X.X.X",
"                @ <.).J.[ ' ' ' ' ' ' ' ' ' ( m.Q.F.u                               .X.X.X8.U.'.x.&       .X.X    .X.X                                                              .X.X.X.X.X.X.X.X.X.X.X.X.X.X.X.X.X.X.X.X      @                             .X.X",
".X                Z Q.k.( ' ' ' ' ' ' ' ' ' ( k.).F.u                             .X.X.X.X8.U.[.x.&       .X.X.X.X.X                      @           .X.X.X.X                            .X.X.X.X.X.X.X.X.X.X.X.X.X.X.X.X.X.X                                  .X.X",
".X                1 a.a.W [ ' ' ' ' ' ' ' [ ( e.).F.x 0 r r r 0 @                 .X.X.X.X8.). Xm.&       .X.X.X.X                                  .X.X.X.X.X.X.X                            .X.X.X.X.X.X.X.X.X.X.X.X.X.X.X.X                                    .X",
".X                  Z a.( ' ' ' ' ' ' ' ' ' ( +.x.<.( ' ' ' ' v @                 .X.X.X.X8._. Xx.&       .X.X          @                           .X.X.X.X.X.X.X.X.X        @                   .X.X.X.X.X.X.X.X.X.X.X.X.X.X                          @         .X",
".X.X                & E ( ' ' ' ' ' ' ' ' ' ' ( ( ( ' ' ' [ J >                   .X.X.X.X8._. Xm.&       .X                                        .X.X.X.X.X.X.X.X.X.X                                .X.X.X.X.X.X.X.X.X.X                                        ",
".X.X                  & M ' ' ' ' ' ' ' ' ' ' [ ' ' ' ' [ J >                   .X.X.X.X.X2.F.).e.> & : &                                             .X.X.X.X.X.X.X.X.X.X.X                                .X.X.X.X.X.X.X                                          ",
".X.X.X                  & v ' ' ' ' ' ' ' ' ' ' ' ' [ ' Z >                     .X.X.X.X.X1 4 4 p u.N.g.N                                             .X.X.X.X.X.X.X.X.X.X.X.X                                                                                      ",
".X.X.X          @         @ p J ' [ ' ' ' ' ' ' ' [ E j &                     .X.X.X.X.X.X      7 ). XQ.F                                               .X.X.X.X.X.X.X.X.X.X.X.X                                                                                    ",
".X.X.X.X                      & u V I E ( ' [ [ V g >                       .X.X.X.X.X.X.X      7 ). XR.F                                               .X.X.X.X.X.X.X.X.X.X.X.X.X              @                                             @                     ",
".X.X.X.X.X                          : 1 p d u 4 @                           .X.X.X.X.X.X.X      7 ). XQ.F                                                 .X.X.X.X.X.X.X.X.X.X.X.X.X.X                                    @                                         ",
".X.X.X.X.X                                                                .X.X.X.X.X.X.X.X      7 Q.[.U.F                                                   .X.X.X.X.X.X.X.X.X.X.X.X.X.X                                                                          .X",
".X.X.X.X.X.X                                @                           .X.X.X.X.X.X.X.X.X      7 Q.Q.J.J                                                     .X.X.X.X.X.X.X.X.X.X.X.X.X.X                                                                        .X",
".X.X.X.X.X.X.X                                                        .X.X.X.X.X.X.X.X.X.X      7 ). XR.F                                                       .X.X.X.X.X.X.X.X.X.X.X.X.X.X.X                                                                  .X.X",
".X.X.X.X.X.X.X.X                                                    .X.X.X.X.X.X.X.X.X.X.X      7 ). XR.F                                       @                 .X.X.X.X.X.X.X.X.X.X.X.X.X.X.X                                                              .X.X.X",
".X.X.X.X.X.X.X.X.X.X                                            .X.X.X.X.X.X.X.X.X.X.X.X.X      7 Q. XQ.F                                                           .X.X.X.X.X.X.X.X.X.X.X.X.X.X.X.X                                                        .X.X.X.X",
".X.X.X.X.X.X.X.X.X.X.X.X                                    .X.X.X.X.X.X.X.X.X.X.X.X.X.X.X      7 U.}.R.J                                                               .X.X.X.X.X.X.X.X.X.X.X.X.X.X.X.X                                      @           .X.X.X.X.X",
".X.X.X.X.X.X.X.X.X.X.X.X.X.X                            .X.X.X.X.X.X.X.X.X.X.X.X.X.X.X.X        @ d j j 4                                                                 .X.X.X.X.X.X.X.X.X.X.X.X.X.X.X.X.X          @                             .X.X.X.X.X.X.X.X",
".X.X.X.X.X.X.X.X.X.X.X.X.X.X.X.X.X                .X.X.X.X.X.X.X.X.X.X.X.X.X.X.X.X.X.X.X                                            @               @                       .X.X.X.X.X.X.X.X.X.X.X.X.X.X.X.X.X.X.X.X                        .X.X.X.X.X.X.X.X.X.X.X.X"
};
