/* XPM */
static char *UNHghaas[] = {
/* columns rows colors chars-per-pixel */
"106 35 64 1",
"  c #000000",
". c #070707",
"X c #080808",
"o c #0C0C0C",
"O c #101010",
"+ c #141414",
"@ c #1B1B1B",
"# c #1C1C1C",
"$ c #212121",
"% c #252525",
"& c #2A2A2A",
"* c #2E2E2E",
"= c #333333",
"- c #353535",
"; c #383838",
": c #3E3E3E",
"> c #424242",
", c #454545",
"< c #484848",
"1 c #4F4F4F",
"2 c #515151",
"3 c #545454",
"4 c #595959",
"5 c #5D5D5D",
"6 c #606060",
"7 c #666666",
"8 c #6B6B6B",
"9 c #6D6D6D",
"0 c #717171",
"q c #777777",
"w c #7A7A7A",
"e c #7C7C7C",
"r c #808080",
"t c #868686",
"y c #8A8A8A",
"u c #8F8F8F",
"i c #909090",
"p c #949494",
"a c #989898",
"s c #9F9F9F",
"d c #A1A1A1",
"f c #A7A7A7",
"g c #AAAAAA",
"h c #ACACAC",
"j c #B0B0B0",
"k c #B5B5B5",
"l c #B8B8B8",
"z c #BCBCBC",
"x c #C1C1C1",
"c c #C7C7C7",
"v c #CBCBCB",
"b c #CDCDCD",
"n c #D2D2D2",
"m c #D6D6D6",
"M c #D9D9D9",
"N c #DEDEDE",
"B c #E1E1E1",
"V c #E7E7E7",
"C c #EBEBEB",
"Z c #EFEFEF",
"A c #F3F3F3",
"S c #F4F4F4",
"D c #FAFAFA",
"F c #FFFFFF",
/* pixels */
"FFFFFFFFFFFFFSmzhpppppppppdbbppppazFSMMbdpjVFFFFFAvdahbZFFFFFFFFFFSmgpgcVDFFFFFFFFFFFNgu=         .lDFFFFF",
"FFFFFFFFFFSj7&.           #yy    o6FCxCv# <vFFFn0%X   .%rNFFFFFFAh-o    @0mFFFFFFFBs<O            .lDFFFFF",
"FFFFFFFFSf-               $uu    o8FZxCn% <vFFz>         <vFFFFZr+        &hSFFFFg*.              .lDFFFFF",
"FFFFFFFb>                 #uu    o7FCcZb% <vFv<           2nFFSu+          $xDFFd$                .lDFFFFF",
"FFFFFDk#                  $uu    o8FZxMc% <vDu+    .      +uDFc,     .      0VFx&                  lFFFFFF",
"FFFFSaO                   #uu    X1zkkCb% <bV8    oqv9o    8VFd$    3xt@    >mD7o                 .lDFFFFF",
"FFFDho                    #yu       @uZn% <vM5    @pFa@    4MFd$    eCv*    ,mb=                   lDFFFFF",
"FFDz+         O%=;;;<29wqqtlt       #iAb$ <vN4    @0t;X    5MFd$    701O    ,ms#        =ejxxcxxxccZFFFFFF",
"FFB*        #20w90yzVmxMFFFCt       +8fi>*8bN5    #4:      5MFd$    3$      ,ma#       ;nFFFFFFFFFFFFFFFFF",
"FAt       .;qwq86slmnvnxnDFCr          $cCnVM5    #4>      4MFd$    4&.     ,ms#       7BFFFFFFFFFFFFFFFFF",
"Fn@      X1wqqqwq85rrwxBbnDZt          %cVbBN4    @4:      5MFd$    3#      ,Mx&       &vFFFFFFFFFFFFFFFFF",
"Ar      X,eqqqqesge57rbBNmNCt    X<la& $cCbVM5    @qu:X    4MFd%    7w3O    ,mZ<.       7BFFFFFFFFFFFFFFFF",
"V:     .*wqqqqpnVBbhkhjjukvBt    o8Fn: %zMvVM5    @pFa@    4MFd$    qCv*    ,mFk&        :lDFFFFFFFFFFFFFF",
"co     o5wqqqebBMNNBBmdfkquvt    O7Fn; %cBbBN4    @aFa+    5NFd$    qVx&    ,mFFe+        +qMFFFFFFFFFFFFF",
"d      #qqqqqrmBNNNNNMkrpqedw    o6Fn; %cCnVM5    +aFp@    4MFd$    wVx&    ,MFFZ4X         @0bFFFFFFFFFFF",
"y     X,qqqqqrbBNNBNNBVxuqwys78889fFm; %cCnBM5    @pFa+    4MFd$    qVc&    ,mFFFV6o          X1aCFFFFFFFF",
"1     ots0qqqqeutyhBMf76<--:7eeeerjFn>X%jncBN4    +pFp&=170fZFk<+.  qVx*    ,mFFFFSi$            &yBFFFFFF",
"      +av00qqqq0q0pNnw           X6FClnk&o2vM5    #dFVclfay0wusjxky2uCx&    ,mFFFFFFb1o            #dSFFFF",
"1     oyVctqqqqqqqtnme           +qFCcZn$ 1vN4  o3zBd3#.        o-9smDB5O.  ,mFFFFFFFZp*.           XeAFFF",
"y     X9VNa0qqqqqqezmw           @tFZxCn% <vM5.;hMp-X               +1fVBa:X>mFFFFFFFFFM5X            9ZFF",
"d     .-mmt0qqqqqqexmw           #sFCxBv% <bM8qns&                     %8lVjiBFFFFFFFFFFZ6o            wZF",
"co     OsbqqqqqqqqrzMe           *cFZxBv$ <vAVx4o           *ivct*        -iMDFFFFFFFFFFFb-            .gD",
"V;     .<c0qqqqqqqwgMy>>,:@     .<AFCxCn% <bDh=            oyDFFFN7O        +2kAFFFFFFFFFS1.            *N",
"Ae      oweqqqqqqqqwtweee3X     +eFFZxZn% 1xi#             XrSFFFFFl,X        .<dVFFFFFFFz*              j",
"FcO      O3wwqqqqqqq0wwq2O      =vFFCxBc$ ;2@              .3mFFFFFFC9O          %9lVZZma*.              5",
"FZe       X1wwqqqqqqww0<o      +eFFFm<@=dzq@                $sFFFFFFFDa#            O@@X                  ",
"FFN*       .&4qwwwqwq4&       .>VFFFm; $vZy@                 >xFFFFFFFFl-.                               o",
"FFDkO         @-<42>+.        &lFFFFn; %cZt#                 .8BFFFFFFFFn2X                              r",
"FFFSs.                       @iFFFFFn; %xVt#                  +rZFFFFFFFFZqO                            Oc",
"FFFFAe.                     OqSFFFFFm; %zMr#                   owCFFFFFFFFDf&.                          8Z",
"FFFFFSao                   @uDFFFFFFn; %cZy#                    OqZFFFFFFFFFM7O                        &mF",
"FFFFFFDj&                .;kFFFFFFFFm: %cZt#                     .wCFFFFFFFFFFk1o                     *xDF",
"FFFFFFFFCy%            .-aCFFFFFFFFDz$ %cCt@                       4MFFFFFFFFFFDl6O                 %0NFFF",
"FFFFFFFFFFZf6%X     X&8hZFFFFFFFFFFb;  .#%+.                        &gAFFFFFFFFFFFmy1#.        .+>0kZFFFFF",
"FFFFFFFFFFFFFAbhq%wjmSFFFFFFFFFFFFFBlzlzkklllzzllzzzzlzzzzzllzzzlzzlkcAFFFFFFFFFFFFFFZbgappipdknCFFFFFFFFF"
};
